REM DIRINDEX 1\2,1\3,1\4,1\5
REM DIRNAME cjc093,folder01,folder02,folder03,folder04
TITLE ""
FILE "Round-03-066-067.mp3" MP3
  TRACK 01 AUDIO
    TITLE "0:"
    INDEX 01 00:00:00
  TRACK 02 AUDIO
    TITLE "2:cjc093_0791"
    INDEX 01 00:00:01
  TRACK 03 AUDIO
    TITLE "0:"
    INDEX 01 00:01:13
  TRACK 04 AUDIO
    TITLE "3:cjc093_0792"
    INDEX 01 00:01:34
  TRACK 05 AUDIO
    TITLE "0:"
    INDEX 01 00:02:61
  TRACK 06 AUDIO
    TITLE "4:cjc093_0793"
    INDEX 01 00:03:27
  TRACK 07 AUDIO
    TITLE "0:"
    INDEX 01 00:06:12
  TRACK 08 AUDIO
    TITLE "2:cjc093_0794"
    INDEX 01 00:07:23
  TRACK 09 AUDIO
    TITLE "0:"
    INDEX 01 00:09:02
  TRACK 10 AUDIO
    TITLE "3:cjc093_0795"
    INDEX 01 00:09:28
  TRACK 11 AUDIO
    TITLE "0:"
    INDEX 01 00:10:45
  TRACK 12 AUDIO
    TITLE "4:cjc093_0796"
    INDEX 01 00:11:11
  TRACK 13 AUDIO
    TITLE "0:"
    INDEX 01 00:13:71
  TRACK 14 AUDIO
    TITLE "2:cjc093_0797"
    INDEX 01 00:15:11
  TRACK 15 AUDIO
    TITLE "0:"
    INDEX 01 00:16:32
  TRACK 16 AUDIO
    TITLE "3:cjc093_0798"
    INDEX 01 00:16:73
  TRACK 17 AUDIO
    TITLE "0:"
    INDEX 01 00:19:63
  TRACK 18 AUDIO
    TITLE "4:cjc093_0799"
    INDEX 01 00:20:12
  TRACK 19 AUDIO
    TITLE "0:"
    INDEX 01 00:23:42
  TRACK 20 AUDIO
    TITLE "2:cjc093_0800"
    INDEX 01 00:24:59
  TRACK 21 AUDIO
    TITLE "0:"
    INDEX 01 00:25:74
  TRACK 22 AUDIO
    TITLE "3:cjc093_0801"
    INDEX 01 00:26:17
  TRACK 23 AUDIO
    TITLE "0:"
    INDEX 01 00:27:36
  TRACK 24 AUDIO
    TITLE "4:cjc093_0802"
    INDEX 01 00:28:37
  TRACK 25 AUDIO
    TITLE "0:"
    INDEX 01 00:32:37
  TRACK 26 AUDIO
    TITLE "3:cjc093_0803"
    INDEX 01 00:33:54
  TRACK 27 AUDIO
    TITLE "0:"
    INDEX 01 00:34:71
  TRACK 28 AUDIO
    TITLE "4:cjc093_0804"
    INDEX 01 00:35:23
  TRACK 29 AUDIO
    TITLE "0:"
    INDEX 01 00:37:36
  TRACK 30 AUDIO
    TITLE "2:cjc093_0805"
    INDEX 01 00:38:49
  TRACK 31 AUDIO
    TITLE "0:"
    INDEX 01 00:39:52
  TRACK 32 AUDIO
    TITLE "3:cjc093_0806"
    INDEX 01 00:40:17
  TRACK 33 AUDIO
    TITLE "0:"
    INDEX 01 00:41:26
  TRACK 34 AUDIO
    TITLE "4:cjc093_0807"
    INDEX 01 00:41:59
  TRACK 35 AUDIO
    TITLE "0:"
    INDEX 01 00:45:33
  TRACK 36 AUDIO
    TITLE "2:cjc093_0808"
    INDEX 01 00:46:47
  TRACK 37 AUDIO
    TITLE "0:"
    INDEX 01 00:47:56
  TRACK 38 AUDIO
    TITLE "3:cjc093_0809"
    INDEX 01 00:48:08
  TRACK 39 AUDIO
    TITLE "0:"
    INDEX 01 00:50:60
  TRACK 40 AUDIO
    TITLE "4:cjc093_0810"
    INDEX 01 00:51:24
  TRACK 41 AUDIO
    TITLE "0:"
    INDEX 01 00:54:36
  TRACK 42 AUDIO
    TITLE "2:cjc093_0811"
    INDEX 01 00:55:48
  TRACK 43 AUDIO
    TITLE "0:"
    INDEX 01 00:56:69
  TRACK 44 AUDIO
    TITLE "3:cjc093_0812"
    INDEX 01 00:57:21
  TRACK 45 AUDIO
    TITLE "0:"
    INDEX 01 00:58:32
  TRACK 46 AUDIO
    TITLE "4:cjc093_0813"
    INDEX 01 00:59:14
  TRACK 47 AUDIO
    TITLE "0:"
    INDEX 01 01:03:31
  TRACK 48 AUDIO
    TITLE "4:cjc093_0814"
    INDEX 01 01:04:19
  TRACK 49 AUDIO
    TITLE "0:"
    INDEX 01 01:07:35
  TRACK 50 AUDIO
    TITLE "2:cjc093_0815"
    INDEX 01 01:08:46
  TRACK 51 AUDIO
    TITLE "0:"
    INDEX 01 01:09:46
  TRACK 52 AUDIO
    TITLE "3:cjc093_0816"
    INDEX 01 01:10:16
  TRACK 53 AUDIO
    TITLE "0:"
    INDEX 01 01:11:31
  TRACK 54 AUDIO
    TITLE "4:cjc093_0817"
    INDEX 01 01:12:07
  TRACK 55 AUDIO
    TITLE "0:"
    INDEX 01 01:15:09
  TRACK 56 AUDIO
    TITLE "2:cjc093_0818"
    INDEX 01 01:16:18
  TRACK 57 AUDIO
    TITLE "0:"
    INDEX 01 01:17:33
  TRACK 58 AUDIO
    TITLE "3:cjc093_0819"
    INDEX 01 01:17:71
  TRACK 59 AUDIO
    TITLE "0:"
    INDEX 01 01:19:64
  TRACK 60 AUDIO
    TITLE "4:cjc093_0820"
    INDEX 01 01:20:51
  TRACK 61 AUDIO
    TITLE "0:"
    INDEX 01 01:24:20
